<?xml version="1.0" encoding="UTF-8" standalone="no"?>
<!-- Creator: CorelDRAW -->

<svg
   xml:space="preserve"
   width="1536"
   height="1575.7313"
   style="clip-rule:evenodd;fill-rule:evenodd;image-rendering:optimizeQuality;shape-rendering:geometricPrecision;text-rendering:geometricPrecision"
   viewBox="0 0 1536 1575.7313"
   version="1.1"
   id="svg2"
   sodipodi:docname="journal-javagi.svg"
   inkscape:version="1.4.2 (ebf0e940d0, 2025-05-08)"
   xmlns:inkscape="http://www.inkscape.org/namespaces/inkscape"
   xmlns:sodipodi="http://sodipodi.sourceforge.net/DTD/sodipodi-0.dtd"
   xmlns="http://www.w3.org/2000/svg"
   xmlns:svg="http://www.w3.org/2000/svg"><sodipodi:namedview
   id="namedview2"
   pagecolor="#505050"
   bordercolor="#ffffff"
   borderopacity="1"
   inkscape:showpageshadow="0"
   inkscape:pageopacity="0"
   inkscape:pagecheckerboard="1"
   inkscape:deskcolor="#505050"
   inkscape:zoom="0.69237694"
   inkscape:cx="769.81189"
   inkscape:cy="842.74904"
   inkscape:window-width="2304"
   inkscape:window-height="1371"
   inkscape:window-x="0"
   inkscape:window-y="0"
   inkscape:window-maximized="1"
   inkscape:current-layer="row3"
   showgrid="false" />
 <defs
   id="defs1">
  <style
   type="text/css"
   id="style1">
   <![CDATA[
    .fil0 {fill:none}
    .fil4 {fill:#543117}
    .fil1 {fill:#734828}
    .fil2 {fill:#A87246}
    .fil3 {fill:#212121;fill-rule:nonzero}
    .fil5 {fill:#BDBDBD;fill-rule:nonzero}
   ]]>
  </style>
 
   
   
   
   
   
  <filter
   style="color-interpolation-filters:sRGB;"
   inkscape:label="Drop Shadow"
   id="filter2"
   x="-0.125"
   y="-0.056031128"
   width="1.3541667"
   height="1.1587549"><feFlood
     result="flood"
     in="SourceGraphic"
     flood-opacity="0.498039"
     flood-color="rgb(0,0,0)"
     id="feFlood1" /><feGaussianBlur
     result="blur"
     in="SourceGraphic"
     stdDeviation="3.000000"
     id="feGaussianBlur1" /><feOffset
     result="offset"
     in="blur"
     dx="6.000000"
     dy="6.000000"
     id="feOffset1" /><feComposite
     result="comp1"
     operator="in"
     in="flood"
     in2="offset"
     id="feComposite1" /><feComposite
     result="comp2"
     operator="over"
     in="SourceGraphic"
     in2="comp1"
     id="feComposite2" /></filter><filter
   inkscape:label="Button"
   inkscape:menu="Bevels"
   inkscape:menu-tooltip="Soft bevel, slightly depressed middle"
   style="color-interpolation-filters:sRGB"
   id="filter8"
   x="-0.31631944"
   y="-0.14178988"
   width="1.6326389"
   height="1.2835798"><feGaussianBlur
     stdDeviation="2.3"
     in="SourceAlpha"
     result="result0"
     id="feGaussianBlur5" /><feMorphology
     in="SourceAlpha"
     radius="6.5"
     result="result1"
     id="feMorphology5" /><feGaussianBlur
     stdDeviation="7"
     in="result1"
     id="feGaussianBlur6" /><feColorMatrix
     values="1 0 0 0 0 0 1 0 0 0 0 0 1 0 0 0 0 0 0.3 0"
     result="result91"
     id="feColorMatrix6" /><feComposite
     in="result0"
     operator="out"
     result="result2"
     in2="result91"
     id="feComposite6" /><feDiffuseLighting
     surfaceScale="10"
     id="feDiffuseLighting6"><feDistantLight
       azimuth="225"
       elevation="45"
       id="feDistantLight6" /></feDiffuseLighting><feBlend
     in2="SourceGraphic"
     mode="multiply"
     id="feBlend6" /><feComposite
     in2="SourceAlpha"
     operator="in"
     result="result3"
     id="feComposite7" /><feGaussianBlur
     stdDeviation="1"
     in="result3"
     result="result4"
     id="feGaussianBlur7" /><feComposite
     in2="result3"
     operator="atop"
     id="feComposite8" /></filter></defs>
 <g
   id="g1"
   transform="matrix(0.89938796,0,0,0.85976169,80.880799,109.7668)"><g
     id="g6"><rect
       style="clip-rule:evenodd;display:inline;fill:#cdab8f;fill-rule:evenodd;stroke-width:1.46768;image-rendering:optimizeQuality;shape-rendering:geometricPrecision;text-rendering:geometricPrecision"
       id="rect3"
       width="1256.7247"
       height="161.72911"
       x="141.01361"
       y="1414.0022"
       rx="72.300018" /></g><g
     id="Layer_x0020_1"
     inkscape:label="Layer 1"
     inkscape:groupmode="layer"
     transform="translate(-255.99899,-255.9976)">
  <metadata
   id="CorelCorpID_0Corel-Layer" />
  
  
  
 <g
   id="g5"><rect
     class="fil0"
     x="255.99899"
     y="256"
     width="1536"
     height="1536"
     id="rect1" /><path
     id="_527606512"
     class="fil1"
     d="m 466.83,255.999 h 139.637 v 1536 H 466.83 c -38.4,0 -69.8174,-28.7988 -69.8174,-63.9993 v -1408 c 0,-35.2004 31.4162,-63.9993 69.8174,-63.9993 z" /><g
     id="g4"><path
       id="_527584720"
       class="fil2"
       d="m 606.467,255.999 h 1.24488 976.20802 c 38.4,0 69.8174,28.8 69.8174,63.9993 v 1408 c 0,35.1992 -31.4185,63.9993 -69.8174,63.9993 h -977.23802 -0.21496 v -1536 z"
       sodipodi:nodetypes="ccsssscccc" /></g><path
     id="_527594656"
     class="fil3"
     d="m 1030.77,947.913 0.043,-0.0106 c 0.9591,-0.2563 0.2847,-0.20905 -0.3035,-0.27283 z" /><g
     id="g2">
    <circle
   id="_527596552"
   class="fil4"
   cx="500.48901"
   cy="425.052"
   r="45.825901" />
    <path
   id="_527591392"
   class="fil5"
   d="m 390.391,406.313 c -14.5547,0 -26.3551,9.84686 -26.3551,21.9933 0,12.1465 11.8004,21.9933 26.3551,21.9933 h 84.9934 c 14.5547,0 26.3551,-9.84686 26.3551,-21.9933 0,-12.1465 -11.8004,-21.9933 -26.3551,-21.9933 z" />
    <circle
   id="_527581312"
   class="fil4"
   cx="500.48901"
   cy="558.15198"
   r="45.825901" />
    <path
   id="_527585296"
   class="fil5"
   d="m 390.391,539.411 c -14.5547,0 -26.3551,9.84804 -26.3551,21.9945 0,12.1453 11.8004,21.9933 26.3551,21.9933 h 84.9934 c 14.5547,0 26.3551,-9.84804 26.3551,-21.9933 0,-12.1465 -11.8004,-21.9945 -26.3551,-21.9945 z" />
    <circle
   id="_527599240"
   class="fil4"
   cx="500.48901"
   cy="691.25098"
   r="45.825901" />
    <path
   id="_527577952"
   class="fil5"
   d="m 390.391,672.511 c -14.5547,0 -26.3551,9.84804 -26.3551,21.9933 0,12.1465 11.8004,21.9945 26.3551,21.9945 h 84.9934 c 14.5547,0 26.3551,-9.84804 26.3551,-21.9945 0,-12.1453 -11.8004,-21.9933 -26.3551,-21.9933 z" />
    <circle
   id="_527588464"
   class="fil4"
   cx="500.48901"
   cy="824.35101"
   r="45.825901" />
    <path
   id="_527576728"
   class="fil5"
   d="m 390.391,805.61 c -14.5547,0 -26.3551,9.84686 -26.3551,21.9933 0,12.1465 11.8004,21.9933 26.3551,21.9933 h 84.9934 c 14.5547,0 26.3551,-9.84686 26.3551,-21.9933 0,-12.1465 -11.8004,-21.9933 -26.3551,-21.9933 z" />
    <circle
   id="_527602960"
   class="fil4"
   cx="500.48901"
   cy="957.45001"
   r="45.825901" />
    <path
   id="_527587240"
   class="fil5"
   d="m 390.391,938.71 c -14.5547,0 -26.3551,9.84686 -26.3551,21.9933 0,12.1465 11.8004,21.9933 26.3551,21.9933 h 84.9934 c 14.5547,0 26.3551,-9.84686 26.3551,-21.9933 0,-12.1465 -11.8004,-21.9933 -26.3551,-21.9933 z" />
    <circle
   id="_527590696"
   class="fil4"
   cx="500.48901"
   cy="1090.55"
   r="45.825901" />
    <path
   id="_527596576"
   class="fil5"
   d="m 390.391,1071.81 c -14.5547,0 -26.3551,9.848 -26.3551,21.9945 0,12.1453 11.8004,21.9933 26.3551,21.9933 h 84.9934 c 14.5547,0 26.3551,-9.848 26.3551,-21.9933 0,-12.1465 -11.8004,-21.9945 -26.3551,-21.9945 z" />
    <circle
   id="_527596432"
   class="fil4"
   cx="500.48901"
   cy="1223.65"
   r="45.825901" />
    <path
   id="_527595040"
   class="fil5"
   d="m 390.391,1204.91 c -14.5547,0 -26.3551,9.848 -26.3551,21.9933 0,12.1465 11.8004,21.9945 26.3551,21.9945 h 84.9934 c 14.5547,0 26.3551,-9.848 26.3551,-21.9945 0,-12.1453 -11.8004,-21.9933 -26.3551,-21.9933 z" />
    <circle
   id="_527589472"
   class="fil4"
   cx="500.48901"
   cy="1356.75"
   r="45.825901" />
    <path
   id="_527606368"
   class="fil5"
   d="m 390.391,1338.01 c -14.5547,0 -26.3551,9.8469 -26.3551,21.9933 0,12.1465 11.8004,21.9933 26.3551,21.9933 h 84.9934 c 14.5547,0 26.3551,-9.8469 26.3551,-21.9933 0,-12.1465 -11.8004,-21.9933 -26.3551,-21.9933 z" />
    <circle
   id="_527602480"
   class="fil4"
   cx="500.48901"
   cy="1489.85"
   r="45.825901" />
    <path
   id="_527594176"
   class="fil5"
   d="m 390.391,1471.11 c -14.5547,0 -26.3551,9.8469 -26.3551,21.9933 0,12.1465 11.8004,21.9933 26.3551,21.9933 h 84.9934 c 14.5547,0 26.3551,-9.8469 26.3551,-21.9933 0,-12.1465 -11.8004,-21.9933 -26.3551,-21.9933 z" />
    <circle
   id="_527580616"
   class="fil4"
   cx="500.48901"
   cy="1622.95"
   r="45.825901" />
    <path
   id="_527588608"
   class="fil5"
   d="m 390.391,1604.21 c -14.5547,0 -26.3551,9.8469 -26.3551,21.9933 0,12.1465 11.8004,21.9933 26.3551,21.9933 h 84.9934 c 14.5547,0 26.3551,-9.8469 26.3551,-21.9933 0,-12.1465 -11.8004,-21.9933 -26.3551,-21.9933 z" />
   </g><g
     id="row3"
     transform="matrix(6.198196,0,0,8.8704617,733.84154,459.46974)"
     style="fill:#a51d2d;fill-opacity:1">
	<path
   id="key:4_3_"
   class="st0"
   d="M 89.2,3.4 C 87.2,1.1 84.3,0 80.7,0 71.9,0.2 58.9,0.1 52,0 49.9,0 48.3,0 47.5,0 45,0 41.2,1.1 38.6,4 37,5.8 35.3,9 35.9,14.1 c 1.2,9 5.3,45.7 5.4,46.1 l 0.2,1.2 1.2,0.4 c 0,0 2.4,0.9 2.7,2.9 0.1,0.8 -0.1,1.9 -0.2,3 -0.4,2.5 -0.9,6.3 2.9,7.7 2.5,0.9 6.3,1.1 8.5,1.1 v 7.8 l 5.1,8.6 -4.7,5.3 v 3.7 l 2.5,3.4 -2.5,2.7 3.2,5.1 -1.4,6.5 7.1,8.4 1.4,-0.9 c 2,-1.2 12.2,-7.7 12.7,-12.9 V 75 l 4.6,-8.9 c 0.8,-1 3.8,-4.9 4.1,-10.5 0.2,-5.5 3.5,-39.5 3.5,-39.7 -0.1,-0.3 1,-7.9 -3,-12.5 z M 68.4,121.6 c -0.6,0.4 -1.2,0.8 -1.8,1.2 l -3.6,-4.3 1.4,-6.1 -2.4,-3.9 2.7,-2.8 -3.6,-5 v -1 l 5.5,-6.4 -6,-10.1 V 72.5 H 59.9 V 65 h 8.6 v 56.6 z M 88.2,15.4 c -0.1,1.4 -3.3,34.5 -3.5,40.1 -0.2,4.8 -3.2,8.2 -3.2,8.2 L 81.3,63.9 76,74 v 39.8 c -0.2,1.3 -2.3,3.5 -5,5.8 V 62.4 H 57.2 v 10.2 c -2.2,0 -5.8,-0.2 -7.9,-0.9 -0.6,-0.2 -0.8,-0.5 -0.3,-3.3 0.2,-1.3 0.4,-2.8 0.2,-4.2 -0.4,-3 -2.7,-4.7 -4.1,-5.5 -0.7,-6.2 -4.2,-36.8 -5.3,-45 -0.4,-2.9 0.2,-5.3 1.7,-7 1.9,-2.1 4.6,-2.7 6,-2.7 0.8,0 2.4,0 4.5,0 7,0.1 19.9,0.2 28.8,0 2.4,-0.1 4.2,0.6 5.4,2 2.8,3.2 2,9.2 2,9.4 z m -8.4,5.1 H 47.9 c -2.4,0 -4.4,-2 -4.4,-4.4 V 14 c 0,-2.4 2,-4.4 4.4,-4.4 h 31.9 c 2.4,0 4.4,2 4.4,4.4 v 2.1 c 0,2.5 -2,4.4 -4.4,4.4 z M 47.9,12.3 c -1,0 -1.7,0.8 -1.7,1.7 v 2.1 c 0,1 0.8,1.7 1.7,1.7 h 31.9 c 1,0 1.7,-0.8 1.7,-1.7 V 14 c 0,-1 -0.8,-1.7 -1.7,-1.7 z"
   style="display:none;fill:#a51d2d;fill-opacity:1" />
	<path
   id="key:3_3_"
   class="st0"
   d="m 87.7,19 c -1.2,-1.2 -2.5,-2.6 -4,-4.3 -2.8,-3.2 -6.3,-7.3 -11.3,-11.1 -6.2,-4.8 -13.1,-4.8 -19,0 -3.3,2.8 -6.8,7.2 -9.8,11.1 -1.6,2.1 -3.1,4 -4.3,5.2 -0.4,0.5 -0.9,0.9 -1.3,1.4 -3.9,4.1 -7.2,7.6 -6.8,14.2 0.3,5.7 7.1,12.2 12.1,16.9 1.3,1.2 2.4,2.2 3.1,3.1 3.1,3.3 2.9,9.3 2.9,9.3 l -0.1,1.9 H 54 l 2.3,57.2 6.7,0.3 2.1,3.8 10.8,-9.5 -4.2,-8.2 4.3,-4.3 -3.3,-3.2 v -1 l 3.1,-4.2 -2.3,-3.7 4.7,-6.9 -1.7,-2 1.2,-0.6 V 79 l -4.2,-3.4 2.8,-4.5 v -3.2 h 5.9 v -7.4 c 0,-2 6.5,-12.8 12.4,-20.6 C 100.9,31.7 91.3,22.5 87.7,19 Z M 74.1,80.8 V 82 l -3.4,1.7 3,3.5 -4.5,6.6 2.3,3.6 -2.4,3.2 v 3.7 l 1.7,1.7 -3.6,3.6 4.2,8 -5.2,4.5 -0.8,-1.4 V 61.6 h 7.5 v 8.8 l -4.2,6.1 z M 91.7,37.7 C 89.1,41.2 78.6,56.1 78.6,60.6 v 3.6 H 75.3 V 59.1 H 62.9 v 61.4 l -3,-0.1 L 57.6,63 H 53 C 52.8,60.5 52,56 49.1,52.9 48.3,52 47.1,50.9 45.8,49.7 41.6,45.7 35.2,39.6 34.9,35.3 34.6,30.4 37,27.8 40.7,23.9 41.1,23.4 41.6,23 42,22.5 c 1.3,-1.4 2.8,-3.4 4.5,-5.5 2.9,-3.8 6.3,-8 9.3,-10.5 4.5,-3.8 9.5,-3.7 14.3,0 4.6,3.6 7.9,7.3 10.7,10.6 1.5,1.7 2.8,3.3 4.2,4.5 5.1,5 10.5,11.1 6.7,16.1 z m -27.6,3.4 c -8.9,0 -15.6,-5.3 -17.5,-7.9 -1.4,-2 -1.2,-4.7 0.5,-6.6 1.6,-1.7 4.5,-2.8 8.1,-0.7 4.8,2.7 13.1,3.5 18.8,0 4.3,-2.7 6.8,-1.1 7.7,-0.2 1.8,1.7 2.1,4.6 0.8,7.2 -2.1,4.2 -12.3,8.2 -18.4,8.2 z M 51.4,27.3 c -0.9,0 -1.8,0.3 -2.4,1 -0.8,0.9 -1.2,2.3 -0.4,3.5 1.6,2.2 7.6,6.9 15.5,6.9 6,0 14.8,-4.1 16.2,-6.9 0.8,-1.6 0.7,-3.4 -0.2,-4.3 -1,-0.9 -2.7,-0.7 -4.7,0.5 -6.7,4.1 -16,3.1 -21.4,0 -0.9,-0.5 -1.8,-0.7 -2.6,-0.7 z m 12.7,-3.8 c -3.9,0 -7,-3.2 -7,-7 0,-3.9 3.2,-7 7,-7 3.8,0 7,3.2 7,7 0,3.9 -3.1,7 -7,7 z m 0,-11.6 c -2.5,0 -4.6,2 -4.6,4.6 0,2.6 2,4.6 4.6,4.6 2.5,0 4.6,-2 4.6,-4.6 0,-2.6 -2.1,-4.6 -4.6,-4.6 z"
   style="display:none;fill:#a51d2d;fill-opacity:1" />
	<path
   id="key:2_1_"
   class="st0"
   d="m 51.8,18.2 h 24.3 c 2.8,0 5,-2.3 5,-5 0,-2.8 -2.2,-5 -5,-5 H 51.8 c -2.8,0 -5,2.3 -5,5 0,2.8 2.2,5 5,5 z m 0,-7.3 h 24.3 c 1.3,0 2.3,1 2.3,2.3 0,1.3 -1,2.3 -2.3,2.3 H 51.8 c -1.3,0 -2.3,-1 -2.3,-2.3 0,-1.3 1,-2.3 2.3,-2.3 z m 0,7.3 h 24.3 c 2.8,0 5,-2.3 5,-5 0,-2.8 -2.2,-5 -5,-5 H 51.8 c -2.8,0 -5,2.3 -5,5 0,2.8 2.2,5 5,5 z m 0,-7.3 h 24.3 c 1.3,0 2.3,1 2.3,2.3 0,1.3 -1,2.3 -2.3,2.3 H 51.8 c -1.3,0 -2.3,-1 -2.3,-2.3 0,-1.3 1,-2.3 2.3,-2.3 z m 0,7.3 h 24.3 c 2.8,0 5,-2.3 5,-5 0,-2.8 -2.2,-5 -5,-5 H 51.8 c -2.8,0 -5,2.3 -5,5 0,2.8 2.2,5 5,5 z m 0,-7.3 h 24.3 c 1.3,0 2.3,1 2.3,2.3 0,1.3 -1,2.3 -2.3,2.3 H 51.8 c -1.3,0 -2.3,-1 -2.3,-2.3 0,-1.3 1,-2.3 2.3,-2.3 z m -7,30.3 c 6.7,3.2 8.3,5.4 8,10.8 -0.3,5.4 1.3,8.3 2.2,9.6 v 12.3 l 2.1,3.8 -5.2,5.3 5,6.2 -1.2,2.5 2.2,3.6 -3.2,3.5 3.7,5.5 v 1.4 l -3.5,8.1 12.6,14.2 8.8,-13.4 v -5 l -3.1,-5.3 2.9,-4 -1.1,-5.2 -1.6,-2.4 2.1,-1.6 -0.7,-3.1 1.9,-2.5 -0.5,-5 -2.2,-2.4 2.6,-2.5 V 62.9 62.7 C 75.8,55.9 76.1,45.4 79.3,43.4 85.6,39.4 95.2,33.3 93.9,26.5 93.8,25.4 93,19.9 91.1,14.4 89.2,8.9 86.2,3.2 81.6,1.6 78.1,0.5 72.9,0 67.4,0 58.4,0 48.8,1.2 45.7,2.6 39.6,5.3 35.1,18.2 34.2,24.2 c -1.2,7.3 2.4,13 10.6,17 z m 19.3,76.9 -4.4,-5 2.8,-6.5 v -3.5 l -2.6,-3.9 3.1,-3.4 -2.7,-4.3 1.3,-2.8 -4.2,-5.3 4.9,-4.9 -3.1,-5.6 v -12 L 59.3,60 58.5,59.4 c 0,0 -1.8,-1.8 -1.5,-7.1 0.1,-1.4 0,-2.6 -0.2,-3.8 h 7.4 v 69.6 z M 38.2,24.9 c 1.1,-7 5.5,-16.9 9.1,-18.5 4.2,-1.9 25.2,-3.5 33,-0.9 5.2,1.7 8.6,14.1 9.6,21.7 0.8,4.1 -8.4,9.9 -12.8,12.8 -6.4,4.1 -5,19.7 -4.6,23.1 v 10.8 l -4.1,4.1 3.8,4.3 0.2,2.1 -2,2.6 0.5,2.4 -3.1,2.4 3.3,4.9 0.6,2.7 -3.4,4.7 3.9,6.6 v 2.7 l -5.2,7.9 -0.1,-0.1 V 45.7 H 56 C 54.5,42.1 51.3,39.8 46.6,37.6 40,34.4 37.4,30.3 38.2,24.9 Z"
   style="display:none;fill:#a51d2d;fill-opacity:1" />
	
<g
   id="row3-6"
   style="filter:url(#filter8)"
   transform="matrix(1.3591147,0,0,0.99344583,-23.964826,-0.28730118)">
	<path
   id="key:4_3_-7"
   class="st0"
   d="M 89.2,3.4 C 87.2,1.1 84.3,0 80.7,0 71.9,0.2 58.9,0.1 52,0 49.9,0 48.3,0 47.5,0 45,0 41.2,1.1 38.6,4 37,5.8 35.3,9 35.9,14.1 c 1.2,9 5.3,45.7 5.4,46.1 l 0.2,1.2 1.2,0.4 c 0,0 2.4,0.9 2.7,2.9 0.1,0.8 -0.1,1.9 -0.2,3 -0.4,2.5 -0.9,6.3 2.9,7.7 2.5,0.9 6.3,1.1 8.5,1.1 v 7.8 l 5.1,8.6 -4.7,5.3 v 3.7 l 2.5,3.4 -2.5,2.7 3.2,5.1 -1.4,6.5 7.1,8.4 1.4,-0.9 c 2,-1.2 12.2,-7.7 12.7,-12.9 V 75 l 4.6,-8.9 c 0.8,-1 3.8,-4.9 4.1,-10.5 0.2,-5.5 3.5,-39.5 3.5,-39.7 -0.1,-0.3 1,-7.9 -3,-12.5 z M 68.4,121.6 c -0.6,0.4 -1.2,0.8 -1.8,1.2 l -3.6,-4.3 1.4,-6.1 -2.4,-3.9 2.7,-2.8 -3.6,-5 v -1 l 5.5,-6.4 -6,-10.1 V 72.5 H 59.9 V 65 h 8.6 v 56.6 z M 88.2,15.4 c -0.1,1.4 -3.3,34.5 -3.5,40.1 -0.2,4.8 -3.2,8.2 -3.2,8.2 L 81.3,63.9 76,74 v 39.8 c -0.2,1.3 -2.3,3.5 -5,5.8 V 62.4 H 57.2 v 10.2 c -2.2,0 -5.8,-0.2 -7.9,-0.9 -0.6,-0.2 -0.8,-0.5 -0.3,-3.3 0.2,-1.3 0.4,-2.8 0.2,-4.2 -0.4,-3 -2.7,-4.7 -4.1,-5.5 -0.7,-6.2 -4.2,-36.8 -5.3,-45 -0.4,-2.9 0.2,-5.3 1.7,-7 1.9,-2.1 4.6,-2.7 6,-2.7 0.8,0 2.4,0 4.5,0 7,0.1 19.9,0.2 28.8,0 2.4,-0.1 4.2,0.6 5.4,2 2.8,3.2 2,9.2 2,9.4 z m -8.4,5.1 H 47.9 c -2.4,0 -4.4,-2 -4.4,-4.4 V 14 c 0,-2.4 2,-4.4 4.4,-4.4 h 31.9 c 2.4,0 4.4,2 4.4,4.4 v 2.1 c 0,2.5 -2,4.4 -4.4,4.4 z M 47.9,12.3 c -1,0 -1.7,0.8 -1.7,1.7 v 2.1 c 0,1 0.8,1.7 1.7,1.7 h 31.9 c 1,0 1.7,-0.8 1.7,-1.7 V 14 c 0,-1 -0.8,-1.7 -1.7,-1.7 z"
   style="display:none;fill:#1c252c" />
	<path
   id="key:3_3_-5"
   class="st0"
   d="m 87.7,19 c -1.2,-1.2 -2.5,-2.6 -4,-4.3 -2.8,-3.2 -6.3,-7.3 -11.3,-11.1 -6.2,-4.8 -13.1,-4.8 -19,0 -3.3,2.8 -6.8,7.2 -9.8,11.1 -1.6,2.1 -3.1,4 -4.3,5.2 -0.4,0.5 -0.9,0.9 -1.3,1.4 -3.9,4.1 -7.2,7.6 -6.8,14.2 0.3,5.7 7.1,12.2 12.1,16.9 1.3,1.2 2.4,2.2 3.1,3.1 3.1,3.3 2.9,9.3 2.9,9.3 l -0.1,1.9 H 54 l 2.3,57.2 6.7,0.3 2.1,3.8 10.8,-9.5 -4.2,-8.2 4.3,-4.3 -3.3,-3.2 v -1 l 3.1,-4.2 -2.3,-3.7 4.7,-6.9 -1.7,-2 1.2,-0.6 V 79 l -4.2,-3.4 2.8,-4.5 v -3.2 h 5.9 v -7.4 c 0,-2 6.5,-12.8 12.4,-20.6 C 100.9,31.7 91.3,22.5 87.7,19 Z M 74.1,80.8 V 82 l -3.4,1.7 3,3.5 -4.5,6.6 2.3,3.6 -2.4,3.2 v 3.7 l 1.7,1.7 -3.6,3.6 4.2,8 -5.2,4.5 -0.8,-1.4 V 61.6 h 7.5 v 8.8 l -4.2,6.1 z M 91.7,37.7 C 89.1,41.2 78.6,56.1 78.6,60.6 v 3.6 H 75.3 V 59.1 H 62.9 v 61.4 l -3,-0.1 L 57.6,63 H 53 C 52.8,60.5 52,56 49.1,52.9 48.3,52 47.1,50.9 45.8,49.7 41.6,45.7 35.2,39.6 34.9,35.3 34.6,30.4 37,27.8 40.7,23.9 41.1,23.4 41.6,23 42,22.5 c 1.3,-1.4 2.8,-3.4 4.5,-5.5 2.9,-3.8 6.3,-8 9.3,-10.5 4.5,-3.8 9.5,-3.7 14.3,0 4.6,3.6 7.9,7.3 10.7,10.6 1.5,1.7 2.8,3.3 4.2,4.5 5.1,5 10.5,11.1 6.7,16.1 z m -27.6,3.4 c -8.9,0 -15.6,-5.3 -17.5,-7.9 -1.4,-2 -1.2,-4.7 0.5,-6.6 1.6,-1.7 4.5,-2.8 8.1,-0.7 4.8,2.7 13.1,3.5 18.8,0 4.3,-2.7 6.8,-1.1 7.7,-0.2 1.8,1.7 2.1,4.6 0.8,7.2 -2.1,4.2 -12.3,8.2 -18.4,8.2 z M 51.4,27.3 c -0.9,0 -1.8,0.3 -2.4,1 -0.8,0.9 -1.2,2.3 -0.4,3.5 1.6,2.2 7.6,6.9 15.5,6.9 6,0 14.8,-4.1 16.2,-6.9 0.8,-1.6 0.7,-3.4 -0.2,-4.3 -1,-0.9 -2.7,-0.7 -4.7,0.5 -6.7,4.1 -16,3.1 -21.4,0 -0.9,-0.5 -1.8,-0.7 -2.6,-0.7 z m 12.7,-3.8 c -3.9,0 -7,-3.2 -7,-7 0,-3.9 3.2,-7 7,-7 3.8,0 7,3.2 7,7 0,3.9 -3.1,7 -7,7 z m 0,-11.6 c -2.5,0 -4.6,2 -4.6,4.6 0,2.6 2,4.6 4.6,4.6 2.5,0 4.6,-2 4.6,-4.6 0,-2.6 -2.1,-4.6 -4.6,-4.6 z"
   style="display:none;fill:#1c252c" />
	<path
   id="key:2_1_-3"
   class="st0"
   d="m 51.8,18.2 h 24.3 c 2.8,0 5,-2.3 5,-5 0,-2.8 -2.2,-5 -5,-5 H 51.8 c -2.8,0 -5,2.3 -5,5 0,2.8 2.2,5 5,5 z m 0,-7.3 h 24.3 c 1.3,0 2.3,1 2.3,2.3 0,1.3 -1,2.3 -2.3,2.3 H 51.8 c -1.3,0 -2.3,-1 -2.3,-2.3 0,-1.3 1,-2.3 2.3,-2.3 z m 0,7.3 h 24.3 c 2.8,0 5,-2.3 5,-5 0,-2.8 -2.2,-5 -5,-5 H 51.8 c -2.8,0 -5,2.3 -5,5 0,2.8 2.2,5 5,5 z m 0,-7.3 h 24.3 c 1.3,0 2.3,1 2.3,2.3 0,1.3 -1,2.3 -2.3,2.3 H 51.8 c -1.3,0 -2.3,-1 -2.3,-2.3 0,-1.3 1,-2.3 2.3,-2.3 z m 0,7.3 h 24.3 c 2.8,0 5,-2.3 5,-5 0,-2.8 -2.2,-5 -5,-5 H 51.8 c -2.8,0 -5,2.3 -5,5 0,2.8 2.2,5 5,5 z m 0,-7.3 h 24.3 c 1.3,0 2.3,1 2.3,2.3 0,1.3 -1,2.3 -2.3,2.3 H 51.8 c -1.3,0 -2.3,-1 -2.3,-2.3 0,-1.3 1,-2.3 2.3,-2.3 z m -7,30.3 c 6.7,3.2 8.3,5.4 8,10.8 -0.3,5.4 1.3,8.3 2.2,9.6 v 12.3 l 2.1,3.8 -5.2,5.3 5,6.2 -1.2,2.5 2.2,3.6 -3.2,3.5 3.7,5.5 v 1.4 l -3.5,8.1 12.6,14.2 8.8,-13.4 v -5 l -3.1,-5.3 2.9,-4 -1.1,-5.2 -1.6,-2.4 2.1,-1.6 -0.7,-3.1 1.9,-2.5 -0.5,-5 -2.2,-2.4 2.6,-2.5 V 62.9 62.7 C 75.8,55.9 76.1,45.4 79.3,43.4 85.6,39.4 95.2,33.3 93.9,26.5 93.8,25.4 93,19.9 91.1,14.4 89.2,8.9 86.2,3.2 81.6,1.6 78.1,0.5 72.9,0 67.4,0 58.4,0 48.8,1.2 45.7,2.6 39.6,5.3 35.1,18.2 34.2,24.2 c -1.2,7.3 2.4,13 10.6,17 z m 19.3,76.9 -4.4,-5 2.8,-6.5 v -3.5 l -2.6,-3.9 3.1,-3.4 -2.7,-4.3 1.3,-2.8 -4.2,-5.3 4.9,-4.9 -3.1,-5.6 v -12 L 59.3,60 58.5,59.4 c 0,0 -1.8,-1.8 -1.5,-7.1 0.1,-1.4 0,-2.6 -0.2,-3.8 h 7.4 v 69.6 z M 38.2,24.9 c 1.1,-7 5.5,-16.9 9.1,-18.5 4.2,-1.9 25.2,-3.5 33,-0.9 5.2,1.7 8.6,14.1 9.6,21.7 0.8,4.1 -8.4,9.9 -12.8,12.8 -6.4,4.1 -5,19.7 -4.6,23.1 v 10.8 l -4.1,4.1 3.8,4.3 0.2,2.1 -2,2.6 0.5,2.4 -3.1,2.4 3.3,4.9 0.6,2.7 -3.4,4.7 3.9,6.6 v 2.7 l -5.2,7.9 -0.1,-0.1 V 45.7 H 56 C 54.5,42.1 51.3,39.8 46.6,37.6 40,34.4 37.4,30.3 38.2,24.9 Z"
   style="display:none;fill:#1c252c" />
	<path
   id="key:1_3_"
   class="st1"
   d="m 60.4,37.7 v 1.6 h -0.7 c -1.6,0 -2.9,1.3 -2.9,2.9 0,1.6 1.3,2.9 2.9,2.9 h 0.7 v 42.5 h -0.7 c -1.2,0 -2.2,1 -2.2,2.2 0,1.2 1,2.2 2.2,2.2 -1.2,0 -2.2,1 -2.2,2.2 0,1.2 1,2.2 2.2,2.2 -1.2,0 -2.2,1 -2.2,2.2 0,1.2 1,2.2 2.2,2.2 h 0.7 v 2.3 h -2.2 v 3.3 h -4.3 v -4.7 H 38.1 v 5.2 h 7.4 v 4 h -7.4 v 4.9 h 7.6 v 4.5 h -7.6 v 4.5 h 16 v -4.5 h 4.3 v 3.1 h 2 v 5.1 h 7.2 v -27.6 h 0.7 c 1.2,0 2.2,-1 2.2,-2.2 0,-1.2 -1,-2.2 -2.2,-2.2 1.2,0 2.2,-1 2.2,-2.2 0,-1.2 -1,-2.2 -2.2,-2.2 1.2,0 2.2,-1 2.2,-2.2 0,-1.2 -1,-2.2 -2.2,-2.2 H 67.6 V 45 h 0.7 c 1.6,0 2.9,-1.3 2.9,-2.9 0,-1.6 -1.3,-2.9 -2.9,-2.9 H 67.6 V 37.6 C 81.8,36.4 92.8,28.5 92.8,18.8 92.8,8.5 79.9,0 64,0 48.1,0 35.2,8.5 35.2,18.9 c 0,9.6 11,17.6 25.2,18.8 z M 55.6,9.2 c 3.5,0 6.6,1.8 8.4,4.5 1.8,-2.7 4.9,-4.5 8.4,-4.5 5.6,0 10.1,4.5 10.1,10.1 0,5.6 -4.5,10.1 -10.1,10.1 -3.5,0 -6.6,-1.8 -8.4,-4.5 -1.8,2.7 -4.9,4.5 -8.4,4.5 C 50,29.4 45.5,24.9 45.5,19.3 45.6,13.8 50.1,9.2 55.6,9.2 Z"
   style="fill:#1c252c" />
</g></g></g></g></g>
</svg>
